<?xml version="1.0" standalone="no"?>
<!DOCTYPE svg PUBLIC "-//W3C//DTD SVG 20010904//EN"
 "http://www.w3.org/TR/2001/REC-SVG-20010904/DTD/svg10.dtd">
<svg version="1.0" xmlns="http://www.w3.org/2000/svg"
 width="482.000000pt" height="482.000000pt" viewBox="0 0 482.000000 482.000000"
 preserveAspectRatio="xMidYMid meet">

<g transform="translate(0.000000,482.000000) scale(0.100000,-0.100000)"
fill="#000000" stroke="none">
<path d="M3547 4243 c-7 -11 -11 -129 -9 -236 2 -68 5 -81 27 -102 15 -15 35
-25 52 -24 l28 1 -27 9 c-37 14 -45 49 -52 212 -4 134 -8 158 -19 140z"/>
<path d="M775 4215 l-30 -25 0 -216 0 -216 28 -24 c20 -17 39 -24 65 -23 l37
2 -35 6 c-19 3 -35 11 -35 18 0 6 -3 15 -7 19 -5 4 -8 52 -8 106 0 64 -4 97
-10 93 -6 -3 -10 4 -10 17 0 18 2 20 10 8 7 -11 10 -8 10 16 0 16 -5 35 -12
42 -8 8 -8 15 -1 24 6 8 7 21 2 33 -11 28 -11 105 1 105 5 0 14 9 20 20 13 25
12 25 -25 -5z"/>
<path d="M968 4135 c-3 -14 -1 -25 3 -25 5 0 9 11 9 25 0 14 -2 25 -4 25 -2 0
-6 -11 -8 -25z"/>
<path d="M3710 4140 c-9 -6 -10 -10 -3 -10 6 0 15 5 18 10 8 12 4 12 -15 0z"/>
<path d="M906 4079 c-47 -56 -30 -144 32 -163 12 -4 22 -12 22 -17 0 -5 5 -9
10 -9 6 0 10 9 10 20 0 14 -7 20 -23 20 -43 0 -67 27 -67 76 0 37 6 51 29 75
16 16 26 29 21 29 -4 0 -20 -14 -34 -31z"/>
<path d="M973 4035 c-3 -9 -3 -18 -1 -21 3 -3 8 4 11 16 6 23 -1 27 -10 5z"/>
<path d="M1030 4033 c0 -19 5 -23 28 -22 16 0 21 3 12 6 -8 4 -20 13 -27 22
-11 14 -12 13 -13 -6z"/>
<path d="M1090 4008 c0 -9 5 -20 10 -23 13 -8 13 5 0 25 -8 13 -10 13 -10 -2z"/>
<path d="M2628 3933 c6 -65 10 -70 11 -15 0 28 -3 52 -7 52 -4 0 -6 -17 -4
-37z"/>
<path d="M2712 3940 c0 -19 2 -27 5 -17 2 9 2 25 0 35 -3 9 -5 1 -5 -18z"/>
<path d="M2773 3935 c0 -22 2 -30 4 -17 2 12 2 30 0 40 -3 9 -5 -1 -4 -23z"/>
<path d="M1138 3953 c6 -2 18 -2 25 0 6 3 1 5 -13 5 -14 0 -19 -2 -12 -5z"/>
<path d="M2533 3915 c0 -27 2 -38 4 -22 2 15 2 37 0 50 -2 12 -4 0 -4 -28z"/>
<path d="M2950 3951 c0 -10 19 -25 25 -20 1 2 -3 10 -11 17 -8 7 -14 8 -14 3z"/>
<path d="M2373 3915 c0 -22 2 -30 4 -17 2 12 2 30 0 40 -3 9 -5 -1 -4 -23z"/>
<path d="M2821 3927 c-1 -33 15 -67 32 -67 8 0 8 3 -2 9 -8 5 -17 26 -21 47
-6 33 -8 34 -9 11z"/>
<path d="M2241 3924 c0 -11 3 -14 6 -6 3 7 2 16 -1 19 -3 4 -6 -2 -5 -13z"/>
<path d="M1110 3910 c0 -5 5 -10 11 -10 5 0 7 5 4 10 -3 6 -8 10 -11 10 -2 0
-4 -4 -4 -10z"/>
<path d="M3027 3899 c4 -13 8 -18 11 -10 2 7 -1 18 -6 23 -8 8 -9 4 -5 -13z"/>
<path d="M871 3893 c-2 -31 22 -65 54 -78 39 -17 55 -19 55 -6 0 5 -18 11 -40
15 -26 4 -43 13 -46 24 -11 34 -23 57 -23 45z"/>
<path d="M3673 3863 c-1 -29 12 -63 26 -63 11 0 -2 83 -14 87 -5 1 -11 -9 -12
-24z"/>
<path d="M3933 3873 c-10 -4 -13 -37 -13 -119 l0 -115 32 -30 c40 -36 61 -39
27 -3 -22 23 -24 36 -29 148 -4 92 -8 122 -17 119z"/>
<path d="M2630 3850 c0 -5 5 -10 11 -10 5 0 7 5 4 10 -3 6 -8 10 -11 10 -2 0
-4 -4 -4 -10z"/>
<path d="M1056 3837 c-11 -8 -16 -20 -13 -28 4 -10 6 -9 6 4 1 9 8 17 16 17 8
0 15 5 15 10 0 13 -3 13 -24 -3z"/>
<path d="M2190 3841 c0 -6 4 -13 10 -16 6 -3 7 1 4 9 -7 18 -14 21 -14 7z"/>
<path d="M2445 3840 c-3 -5 -1 -10 4 -10 6 0 11 5 11 10 0 6 -2 10 -4 10 -3 0
-8 -4 -11 -10z"/>
<path d="M1113 3823 c9 -2 25 -2 35 0 9 3 1 5 -18 5 -19 0 -27 -2 -17 -5z"/>
<path d="M4120 3821 c0 -7 7 -19 15 -27 19 -20 19 -5 0 20 -9 11 -15 14 -15 7z"/>
<path d="M477 3806 c-15 -12 -17 -27 -15 -96 3 -71 6 -85 24 -97 21 -14 21
-13 11 26 -13 49 -2 64 23 34 10 -13 22 -23 26 -23 4 0 -7 15 -25 34 -31 32
-33 38 -29 85 3 28 5 51 4 51 -1 0 -9 -7 -19 -14z"/>
<path d="M621 3794 c0 -11 3 -14 6 -6 3 7 2 16 -1 19 -3 4 -6 -2 -5 -13z"/>
<path d="M2935 3790 c-66 -5 -263 -16 -439 -25 -175 -9 -341 -20 -369 -26
-164 -31 -300 -162 -343 -331 -28 -109 -26 -318 3 -413 23 -73 61 -140 108
-188 93 -96 172 -112 530 -103 307 8 620 30 713 51 87 20 148 54 210 116 64
64 103 131 133 229 20 64 23 96 23 220 0 163 -18 242 -76 333 -79 124 -199
157 -493 137z m249 -51 c25 -13 46 -26 46 -31 0 -4 7 -5 15 -2 10 4 18 -3 24
-19 6 -14 17 -29 25 -34 8 -4 29 -51 47 -103 25 -74 33 -114 34 -182 2 -68 -1
-88 -12 -92 -9 -4 -12 -13 -8 -25 3 -10 -1 -24 -10 -31 -9 -7 -13 -21 -10 -31
5 -13 1 -19 -10 -19 -9 0 -19 -9 -22 -21 -4 -14 -12 -19 -24 -16 -10 3 -18 2
-17 -2 4 -30 -4 -43 -22 -38 -11 3 -20 1 -20 -5 0 -5 -7 -16 -15 -24 -8 -9
-15 -13 -15 -9 0 4 -7 -1 -16 -10 -10 -9 -25 -14 -35 -12 -11 3 -19 0 -19 -7
0 -8 -20 -10 -72 -5 -40 4 -80 9 -89 13 -18 8 -51 51 -85 110 -15 26 -24 34
-24 23 0 -11 9 -32 20 -47 12 -16 18 -36 14 -47 -4 -13 -3 -14 4 -5 7 10 13 7
26 -12 20 -31 12 -33 -31 -6 -22 13 -30 15 -27 6 8 -20 -14 -30 -31 -16 -12
10 -18 10 -30 0 -8 -6 -20 -8 -27 -4 -10 5 -11 4 0 -7 6 -7 12 -20 12 -28 0
-11 -4 -10 -14 5 -14 19 -15 19 -40 -5 -31 -29 -97 -33 -126 -6 -18 16 -40 14
-40 -5 0 -5 14 -17 31 -26 31 -16 92 -16 134 0 17 7 17 5 -4 -13 -46 -41 -171
-13 -171 39 0 11 -4 20 -9 20 -5 0 -17 7 -25 16 -15 14 -16 14 -16 -2 0 -14
-7 -16 -37 -11 -21 3 -32 3 -25 0 6 -2 9 -9 6 -14 -3 -6 -11 -3 -18 7 -10 13
-17 14 -34 5 -12 -6 -22 -16 -22 -22 0 -6 -4 -8 -8 -5 -5 3 -26 0 -48 -5 -62
-18 -136 4 -181 52 -56 61 -74 97 -83 168 -4 36 -8 54 -9 39 0 -15 -6 -30 -12
-34 -8 -4 -9 0 -4 15 4 15 1 23 -10 27 -13 6 -14 8 -3 15 10 7 9 9 -5 9 -10 0
-15 5 -12 10 4 6 12 7 18 3 7 -3 4 3 -6 14 -9 11 -17 24 -17 29 0 5 -11 26
-25 45 -32 49 -42 157 -17 203 9 17 16 33 17 36 2 19 36 49 70 60 22 7 51 19
64 27 24 15 70 20 381 38 218 13 365 20 511 23 135 3 150 1 193 -19z m283
-571 c-3 -7 -5 -2 -5 12 0 14 2 19 5 13 2 -7 2 -19 0 -25z m-20 -90 c-3 -8 -6
-5 -6 6 -1 11 2 17 5 13 3 -3 4 -12 1 -19z m-27 -68 c-6 -11 -13 -20 -16 -20
-2 0 0 9 6 20 6 11 13 20 16 20 2 0 0 -9 -6 -20z m-1010 -10 c0 -5 -8 -10 -17
-10 -15 0 -16 2 -3 10 19 12 20 12 20 0z m949 -87 c-52 -67 -122 -117 -196
-138 -107 -31 -362 -48 -748 -49 l-370 -1 -57 28 c-56 28 -112 83 -157 157
-32 53 -25 61 8 9 48 -75 96 -118 167 -151 67 -31 74 -32 224 -36 159 -4 360
6 693 33 258 21 337 49 422 150 22 26 42 52 44 57 1 5 6 7 9 4 3 -3 -15 -32
-39 -63z"/>
<path d="M3020 3482 c0 -4 15 -6 34 -4 55 6 132 -42 164 -103 8 -16 18 -55 22
-85 l7 -55 2 53 c2 82 -39 147 -116 186 -33 16 -113 22 -113 8z"/>
<path d="M2955 3449 c-12 -5 -36 -32 -55 -60 -44 -66 -52 -135 -20 -201 27
-57 34 -64 90 -79 71 -18 124 0 160 57 54 86 48 170 -20 246 -31 35 -42 41
-85 44 -28 2 -59 -1 -70 -7z m120 -34 c27 -26 33 -76 12 -93 -7 -6 -31 -14
-53 -17 -77 -13 -126 65 -72 115 31 28 83 26 113 -5z m-120 -125 c0 -7 -6 -15
-12 -17 -8 -3 -13 4 -13 17 0 13 5 20 13 18 6 -3 12 -11 12 -18z m35 -154 c8
-3 -1 -3 -20 0 -46 8 -47 9 -71 57 l-21 42 48 -46 c27 -26 56 -49 64 -53z"/>
<path d="M2292 3436 c108 -20 169 -83 188 -195 l8 -46 1 44 c3 117 -104 214
-231 210 -22 -1 -11 -5 34 -13z"/>
<path d="M2174 3424 c-18 -9 -43 -28 -55 -42 l-24 -27 25 21 c14 12 43 31 65
42 46 24 36 29 -11 6z"/>
<path d="M2185 3401 c-22 -10 -48 -27 -57 -37 -46 -52 -61 -150 -34 -216 16
-37 73 -82 119 -92 99 -23 211 97 191 205 -13 67 -60 127 -117 148 -39 15 -55
14 -102 -8z m100 -15 c57 -24 73 -82 30 -110 -35 -23 -84 -20 -112 6 -44 41
-22 98 45 117 1 1 18 -5 37 -13z m-92 -132 c3 -3 3 -12 0 -20 -4 -11 -9 -12
-19 -3 -8 6 -11 15 -8 20 6 10 18 12 27 3z m0 -142 c14 -8 42 -11 77 -8 56 5
52 -6 -7 -18 -44 -10 -108 10 -132 41 -30 38 -26 48 10 21 17 -13 41 -29 52
-36z"/>
<path d="M2065 3309 c-9 -17 -15 -33 -13 -35 3 -2 12 12 21 31 21 43 13 47 -8
4z"/>
<path d="M2432 3044 c-7 -8 -8 -14 -3 -14 10 0 25 19 20 25 -2 1 -10 -3 -17
-11z"/>
<path d="M2703 3034 c-7 -3 -9 -12 -6 -21 6 -16 -5 -16 -66 3 -18 5 -23 4 -19
-7 6 -18 75 -24 94 -9 7 7 12 16 9 20 -3 5 3 11 12 13 12 3 13 5 3 5 -8 0 -20
-2 -27 -4z"/>
<path d="M2550 3019 c0 -5 5 -7 10 -4 6 3 10 8 10 11 0 2 -4 4 -10 4 -5 0 -10
-5 -10 -11z"/>
<path d="M1018 3783 c7 -3 16 -2 19 1 4 3 -2 6 -13 5 -11 0 -14 -3 -6 -6z"/>
<path d="M654 3729 c-19 -22 -19 -22 4 -8 12 8 22 17 22 21 0 12 -6 9 -26 -13z"/>
<path d="M1138 3743 c7 -3 16 -2 19 1 4 3 -2 6 -13 5 -11 0 -14 -3 -6 -6z"/>
<path d="M1063 3733 c9 -2 25 -2 35 0 9 3 1 5 -18 5 -19 0 -27 -2 -17 -5z"/>
<path d="M4121 3724 c0 -11 3 -14 6 -6 3 7 2 16 -1 19 -3 4 -6 -2 -5 -13z"/>
<path d="M540 3726 c0 -2 7 -9 15 -16 9 -7 15 -8 15 -2 0 5 -7 12 -15 16 -8 3
-15 4 -15 2z"/>
<path d="M948 3723 c12 -2 32 -2 45 0 12 2 2 4 -23 4 -25 0 -35 -2 -22 -4z"/>
<path d="M4000 3714 c1 -23 64 -73 77 -61 2 3 -5 8 -16 12 -11 3 -30 18 -41
32 -11 14 -20 22 -20 17z"/>
<path d="M675 3680 c-10 -11 -16 -22 -14 -24 2 -2 12 7 22 20 22 29 17 32 -8
4z"/>
<path d="M589 3658 c-9 -18 -9 -21 1 -11 7 6 20 9 29 5 14 -5 14 -4 2 11 -17
22 -18 21 -32 -5z"/>
<path d="M1368 3668 c8 -10 3 -13 -19 -14 -17 -1 -35 -6 -41 -12 -8 -8 -2 -10
23 -6 31 5 39 2 73 -36 79 -87 112 -211 103 -384 -3 -60 -11 -115 -20 -136
-15 -33 -16 -33 -17 -9 0 17 -8 29 -24 37 -23 10 -24 15 -25 119 0 143 -27
239 -88 321 -26 35 -49 40 -79 17 -19 -15 -19 -15 1 -9 16 6 13 0 -11 -27 -52
-56 -68 -97 -67 -169 3 -220 17 -253 171 -393 23 -21 49 -51 57 -68 9 -16 19
-29 24 -29 5 0 14 -13 20 -28 16 -39 142 -165 220 -220 36 -25 68 -49 71 -52
3 -3 48 -28 100 -54 52 -26 101 -53 107 -60 10 -9 -3 -27 -58 -84 -39 -40 -79
-72 -90 -72 -25 0 -24 -12 2 -36 12 -10 27 -31 35 -46 16 -31 19 -135 4 -158
-8 -12 -10 -11 -10 7 0 12 -4 25 -10 28 -5 3 -10 -1 -10 -9 0 -13 -37 -33 -44
-24 -2 1 -19 43 -39 91 -38 94 -36 106 18 93 32 -8 32 4 -1 35 -22 20 -35 24
-84 22 -33 -1 -67 -6 -77 -12 -16 -9 -16 -10 4 -11 34 0 94 -59 121 -120 27
-61 43 -190 23 -190 -6 0 -11 7 -11 16 0 8 -4 13 -10 9 -5 -3 -35 6 -67 19
-32 14 -54 25 -49 26 4 0 -10 18 -33 40 -23 23 -46 38 -51 35 -6 -4 -10 -2
-10 4 0 5 5 13 10 16 6 3 10 11 10 18 0 6 -7 2 -15 -10 -12 -17 -13 -30 -4
-70 6 -26 11 -58 12 -70 2 -17 8 -23 27 -23 41 0 143 -29 162 -47 14 -13 20
-13 33 -3 9 7 19 10 23 6 4 -4 8 -80 9 -169 1 -89 4 -174 7 -189 10 -60 81
-172 154 -243 68 -67 73 -74 69 -108 -2 -20 -9 -42 -14 -49 -14 -18 -12 -46 4
-52 7 -3 17 4 23 14 6 11 15 20 21 20 6 0 17 7 26 16 21 20 80 11 142 -23 25
-14 58 -32 73 -40 14 -7 29 -20 32 -29 3 -8 11 -12 16 -9 6 4 9 1 8 -6 -2 -6
3 -14 11 -17 11 -3 13 2 8 24 -3 16 -8 36 -12 46 -6 15 2 16 77 11 107 -7 118
-13 116 -63 -1 -22 -4 -40 -8 -40 -19 0 -6 -52 17 -67 32 -21 145 -21 233 1
36 9 91 16 122 16 65 0 88 7 88 25 0 24 -18 26 -77 8 -65 -19 -256 -23 -308
-5 -29 10 -28 10 19 11 27 1 47 4 43 7 -6 7 29 59 72 107 31 35 94 69 133 71
42 3 49 16 36 60 -11 35 -10 40 10 56 12 10 22 20 22 22 0 1 -17 3 -37 3 -35
0 -38 2 -41 32 -3 29 13 177 38 348 6 39 20 142 30 230 11 88 26 197 34 243
12 75 12 81 -3 70 -44 -35 -62 -92 -90 -298 -38 -274 -55 -369 -62 -364 -13 7
-21 -36 -14 -72 3 -19 2 -34 -4 -34 -5 0 -7 -9 -4 -20 3 -12 0 -20 -7 -20 -8
0 -10 -12 -5 -40 4 -25 3 -40 -3 -40 -6 0 -13 -12 -15 -27 -3 -21 -4 -18 -6
12 -1 35 47 369 98 680 10 61 16 114 13 120 -3 5 -8 2 -10 -5 -3 -8 -13 -25
-23 -38 -15 -20 -38 -157 -31 -185 3 -9 -5 -58 -34 -210 -8 -43 -12 -82 -9
-87 9 -14 -38 -20 -175 -20 -375 1 -491 71 -492 300 -1 132 31 198 117 243 35
18 72 22 285 33 324 17 388 23 394 41 3 8 1 11 -4 8 -19 -12 -307 -35 -437
-35 -155 0 -215 -11 -276 -49 -62 -40 -89 -100 -95 -209 -12 -220 62 -300 307
-337 53 -8 160 -15 238 -15 l141 0 -18 -37 c-9 -21 -20 -57 -24 -81 -3 -24
-11 -51 -16 -60 -5 -9 -17 -33 -25 -52 -32 -69 -40 -81 -65 -86 -14 -3 -35
-10 -47 -16 -17 -8 -26 -8 -39 3 -13 11 -18 11 -21 2 -4 -10 -11 -9 -33 2 -35
18 -57 19 -63 3 -3 -8 -9 -3 -15 12 -6 14 -11 19 -11 13 -1 -18 -26 -16 -45 2
-8 8 -25 15 -38 15 -19 0 -20 2 -8 11 13 9 13 10 -2 6 -9 -3 -22 1 -28 8 -7 8
-16 12 -21 9 -5 -3 -25 4 -44 16 -19 12 -39 19 -45 15 -5 -3 -7 0 -4 8 6 17
-31 47 -59 47 -13 0 -17 5 -13 15 3 8 2 14 -2 14 -4 -1 -22 2 -41 6 -39 9 -56
41 -67 126 -4 30 -10 64 -15 76 -5 15 -4 23 7 27 8 3 14 13 14 22 0 9 -6 14
-13 11 -10 -4 -13 2 -9 19 3 17 0 24 -12 24 -22 0 -21 20 2 21 11 0 12 2 4 6
-23 9 -34 55 -38 158 -10 249 -2 284 74 308 64 20 104 26 203 32 46 2 131 7
189 10 285 16 456 40 524 74 l37 20 -21 21 c-12 12 -18 26 -13 30 4 4 48 25
98 45 82 34 221 117 270 162 60 56 69 89 10 39 -15 -13 -33 -22 -40 -20 -7 3
-19 -1 -26 -8 -18 -18 -83 -48 -103 -48 -9 0 -16 -4 -16 -9 0 -5 -16 -12 -36
-16 -20 -3 -44 -10 -53 -15 -9 -5 -50 -17 -91 -27 -60 -14 -114 -18 -273 -17
-121 0 -206 5 -220 12 -38 18 -129 41 -143 35 -10 -4 -12 0 -7 13 5 14 3 16
-11 11 -22 -9 -112 11 -156 34 l-35 19 45 1 45 1 -62 13 c-118 26 -204 81
-255 163 -12 19 -24 30 -26 24 -2 -6 6 -21 17 -33 32 -34 15 -37 -19 -3 -15
16 -33 34 -40 39 -24 22 -69 79 -96 121 -15 24 -32 44 -36 44 -4 0 -8 10 -8
23 0 24 -37 67 -57 67 -7 0 -13 -8 -15 -17 -2 -9 -2 39 0 108 3 106 0 138 -21
219 -14 52 -38 118 -54 145 -16 28 -28 56 -25 63 2 6 -4 12 -13 12 -9 0 -13 5
-10 10 4 6 -9 10 -31 10 -28 0 -34 -3 -26 -12z m92 -98 c6 -11 8 -20 6 -20 -3
0 -10 9 -16 20 -6 11 -8 20 -6 20 3 0 10 -9 16 -20z m-260 -194 c0 -3 -4 -8
-10 -11 -5 -3 -10 -1 -10 4 0 6 5 11 10 11 6 0 10 -2 10 -4z m327 -38 c-3 -7
-5 -2 -5 12 0 14 2 19 5 13 2 -7 2 -19 0 -25z m351 -583 c-3 -3 -9 2 -12 12
-6 14 -5 15 5 6 7 -7 10 -15 7 -18z m168 -77 c4 -6 -2 -7 -17 -3 -35 10 -45
23 -15 18 15 -3 29 -10 32 -15z m751 -1120 c-3 -7 -5 -2 -5 12 0 14 2 19 5 13
2 -7 2 -19 0 -25z m-800 -156 c88 -53 349 -161 453 -188 52 -13 75 -14 146 -4
47 6 97 15 111 21 14 5 28 7 30 5 3 -3 -25 -14 -62 -25 -92 -29 -185 -27 -277
3 -212 69 -448 186 -505 250 -25 27 -25 28 -3 9 14 -12 62 -44 107 -71z m241
-61 c-2 -5 6 -17 17 -25 19 -15 18 -16 -10 -4 -40 16 -42 18 -25 28 19 12 21
12 18 1z m86 -56 c11 -8 15 -15 10 -15 -6 0 -19 7 -30 15 -10 8 -14 14 -9 14
6 0 19 -6 29 -14z"/>
<path d="M4088 3623 c7 -3 16 -2 19 1 4 3 -2 6 -13 5 -11 0 -14 -3 -6 -6z"/>
<path d="M3554 3553 c4 -9 11 -62 17 -117 9 -81 8 -124 -4 -216 -9 -63 -19
-123 -22 -132 -13 -33 14 -19 45 23 37 52 45 78 30 93 -10 8 -12 7 -7 -7 4
-11 3 -16 -3 -12 -6 4 -14 -3 -18 -14 -4 -11 -5 43 -4 119 4 141 -11 280 -30
280 -6 0 -7 -8 -4 -17z"/>
<path d="M419 3453 c-11 -13 -13 -66 -11 -267 4 -272 9 -302 58 -325 30 -13
67 -15 59 -1 -3 5 -12 7 -20 4 -30 -12 -48 54 -55 196 l-7 135 -3 -95 c-2 -69
-5 -39 -10 110 -4 113 -3 217 1 233 9 31 7 33 -12 10z"/>
<path d="M660 3338 l-24 -31 27 18 c15 9 27 24 27 31 0 19 -1 18 -30 -18z"/>
<path d="M3824 3323 c-16 -24 -18 -51 -19 -201 0 -171 0 -174 24 -193 13 -10
30 -19 39 -19 13 0 12 3 -3 14 -18 13 -19 29 -20 220 0 113 -1 206 -1 206 -1
0 -10 -12 -20 -27z"/>
<path d="M443 3260 c0 -36 2 -50 4 -32 2 17 2 47 0 65 -2 17 -4 3 -4 -33z"/>
<path d="M730 3310 l-35 -7 41 -2 c68 -2 70 -16 24 -122 -44 -103 -43 -99 -32
-99 8 0 92 185 92 203 0 4 -6 7 -14 7 -8 0 -16 7 -20 15 -3 8 -9 14 -13 14 -4
-1 -24 -5 -43 -9z"/>
<path d="M880 3281 c0 -6 4 -13 10 -16 6 -3 7 1 4 9 -7 18 -14 21 -14 7z"/>
<path d="M568 3251 c10 -6 5 -25 -22 -83 -38 -85 -55 -145 -37 -134 6 4 11 15
11 24 0 9 7 31 16 47 15 29 64 145 64 152 0 2 -10 3 -22 3 -16 0 -19 -3 -10
-9z"/>
<path d="M4067 3249 c7 -7 15 -10 18 -7 3 3 -2 9 -12 12 -14 6 -15 5 -6 -5z"/>
<path d="M3940 3240 c0 -5 5 -10 10 -10 6 0 10 5 10 10 0 6 -4 10 -10 10 -5 0
-10 -4 -10 -10z"/>
<path d="M820 3193 c-6 -16 -18 -45 -27 -66 -14 -33 -15 -40 -2 -48 8 -5 21
-8 29 -8 8 0 5 4 -7 9 -28 11 -29 25 -5 42 11 8 21 31 24 56 7 48 2 54 -12 15z"/>
<path d="M861 3188 c-1 -22 6 -43 16 -53 14 -14 14 -20 4 -37 -10 -16 -10 -19
0 -16 29 10 31 33 6 88 l-25 55 -1 -37z"/>
<path d="M628 3197 c6 -7 13 -28 14 -46 1 -18 8 -36 15 -38 8 -3 11 -16 8 -36
-5 -26 -4 -29 10 -17 8 7 15 19 15 26 0 20 -53 124 -63 124 -5 0 -5 -6 1 -13z"/>
<path d="M586 3134 c-30 -66 -31 -70 -10 -78 25 -10 41 -6 22 5 -21 12 -23 35
-4 46 11 6 29 83 20 83 -2 0 -14 -25 -28 -56z"/>
<path d="M3938 3153 c7 -3 16 -2 19 1 4 3 -2 6 -13 5 -11 0 -14 -3 -6 -6z"/>
<path d="M926 3027 c-38 -25 -59 -31 -101 -31 -29 0 -60 5 -68 12 -12 11 -22
8 -52 -13 -21 -14 -33 -25 -26 -25 6 0 23 7 36 16 20 13 31 14 56 5 18 -6 44
-11 58 -11 32 0 121 41 140 63 18 22 15 21 -43 -16z"/>
<path d="M519 2988 c22 -14 53 -22 90 -24 l56 -3 -57 8 c-32 5 -69 16 -82 25
-14 9 -29 16 -33 16 -4 0 7 -10 26 -22z"/>
<path d="M4040 2990 c-8 -5 -10 -10 -5 -10 6 0 17 5 25 10 8 5 11 10 5 10 -5
0 -17 -5 -25 -10z"/>
<path d="M4018 2923 c7 -3 16 -2 19 1 4 3 -2 6 -13 5 -11 0 -14 -3 -6 -6z"/>
<path d="M3903 2913 c9 -2 23 -2 30 0 6 3 -1 5 -18 5 -16 0 -22 -2 -12 -5z"/>
<path d="M868 2893 c7 -3 16 -2 19 1 4 3 -2 6 -13 5 -11 0 -14 -3 -6 -6z"/>
<path d="M698 2873 c12 -2 30 -2 40 0 9 3 -1 5 -23 4 -22 0 -30 -2 -17 -4z"/>
<path d="M3779 2673 c-1 -24 -3 -29 -6 -15 -2 12 -9 22 -14 22 -7 0 -9 -66 -7
-189 3 -169 5 -191 22 -210 11 -12 31 -21 44 -21 l26 0 -21 19 c-27 25 -33 83
-30 279 1 83 -1 152 -5 152 -5 0 -9 -17 -9 -37z m-2 -125 c-2 -13 -4 -3 -4 22
0 25 2 35 4 23 2 -13 2 -33 0 -45z"/>
<path d="M2163 2663 c9 -2 25 -2 35 0 9 3 1 5 -18 5 -19 0 -27 -2 -17 -5z"/>
<path d="M700 2590 c-13 -8 -12 -10 3 -10 15 0 18 -7 15 -42 -2 -35 -7 -43
-28 -49 l-25 -7 28 -1 c31 -1 37 -24 10 -41 -16 -10 -16 -10 2 -8 18 3 20 12
23 77 3 78 -3 96 -28 81z"/>
<path d="M330 2566 c-14 -37 -13 -169 2 -201 6 -14 22 -28 35 -32 27 -6 108 3
126 14 7 4 21 7 32 5 l20 -2 -20 9 c-11 4 -37 6 -57 3 -59 -7 -68 6 -69 112
l-2 91 -8 -75 c-4 -41 -6 -85 -4 -98 2 -12 0 -20 -6 -17 -5 4 -9 1 -9 -4 0 -6
8 -11 18 -11 9 0 24 -5 32 -10 11 -8 7 -10 -17 -8 -18 1 -35 9 -38 17 -3 8 -8
62 -11 120 -2 58 -6 107 -9 109 -2 3 -9 -7 -15 -22z"/>
<path d="M648 2583 c6 -2 18 -2 25 0 6 3 1 5 -13 5 -14 0 -19 -2 -12 -5z"/>
<path d="M598 2573 c7 -3 16 -2 19 1 4 3 -2 6 -13 5 -11 0 -14 -3 -6 -6z"/>
<path d="M503 2563 c9 -2 23 -2 30 0 6 3 -1 5 -18 5 -16 0 -22 -2 -12 -5z"/>
<path d="M440 2551 c0 -5 9 -7 20 -4 11 3 20 7 20 9 0 2 -9 4 -20 4 -11 0 -20
-4 -20 -9z"/>
<path d="M673 2533 c9 -2 23 -2 30 0 6 3 -1 5 -18 5 -16 0 -22 -2 -12 -5z"/>
<path d="M440 2520 c0 -5 5 -10 11 -10 5 0 7 5 4 10 -3 6 -8 10 -11 10 -2 0
-4 -4 -4 -10z"/>
<path d="M563 2523 c9 -2 23 -2 30 0 6 3 -1 5 -18 5 -16 0 -22 -2 -12 -5z"/>
<path d="M488 2513 c7 -3 16 -2 19 1 4 3 -2 6 -13 5 -11 0 -14 -3 -6 -6z"/>
<path d="M603 2473 c9 -2 25 -2 35 0 9 3 1 5 -18 5 -19 0 -27 -2 -17 -5z"/>
<path d="M3841 2464 c0 -11 3 -14 6 -6 3 7 2 16 -1 19 -3 4 -6 -2 -5 -13z"/>
<path d="M473 2463 c-29 -4 -33 -8 -33 -34 l0 -31 68 7 c37 4 69 10 72 13 3 2
-25 2 -62 -2 -63 -6 -68 -5 -68 13 0 16 11 21 63 29 60 9 27 13 -40 5z"/>
<path d="M613 2423 c9 -2 25 -2 35 0 9 3 1 5 -18 5 -19 0 -27 -2 -17 -5z"/>
<path d="M3910 2426 c0 -2 8 -10 18 -17 15 -13 16 -12 3 4 -13 16 -21 21 -21
13z"/>
<path d="M3110 2412 c0 -5 10 -18 23 -29 20 -19 26 -19 62 -8 26 8 32 13 19
14 -12 1 -27 8 -34 16 -13 16 -70 21 -70 7z"/>
<path d="M740 2400 c-9 -6 -10 -10 -3 -10 6 0 15 5 18 10 8 12 4 12 -15 0z"/>
<path d="M3055 2401 c-11 -5 -29 -18 -39 -30 l-19 -21 39 0 c21 0 49 3 61 6
21 6 21 7 6 30 -17 26 -18 27 -48 15z"/>
<path d="M3251 2380 c-17 -15 -19 -20 -7 -20 8 0 20 9 26 20 13 25 11 25 -19
0z"/>
<path d="M698 2383 c7 -3 16 -2 19 1 4 3 -2 6 -13 5 -11 0 -14 -3 -6 -6z"/>
<path d="M847 2359 c-16 -18 -18 -39 -15 -240 3 -214 4 -221 25 -239 14 -11
40 -18 69 -18 53 -1 56 4 4 10 -19 3 -35 9 -36 14 0 5 -3 16 -7 24 -3 8 -8 26
-11 40 -8 38 -9 392 -1 413 9 22 -5 20 -28 -4z"/>
<path d="M555 2360 c3 -6 20 -10 37 -10 38 0 34 5 -10 13 -21 4 -31 3 -27 -3z"/>
<path d="M648 2363 c7 -3 16 -2 19 1 4 3 -2 6 -13 5 -11 0 -14 -3 -6 -6z"/>
<path d="M698 2358 c7 -7 12 -22 12 -34 0 -13 5 -26 11 -30 8 -4 9 4 4 27 -9
42 -13 49 -28 49 -8 0 -8 -3 1 -12z"/>
<path d="M4029 2353 c-13 -16 -12 -17 4 -4 16 13 21 21 13 21 -2 0 -10 -8 -17
-17z"/>
<path d="M3920 2356 c0 -3 14 -12 30 -21 17 -9 30 -13 30 -11 0 3 -13 12 -30
21 -16 9 -30 13 -30 11z"/>
<path d="M3137 2332 c-13 -14 -15 -22 -7 -27 16 -10 33 9 28 30 -3 16 -5 15
-21 -3z"/>
<path d="M3360 2330 c0 -5 7 -10 16 -10 8 0 12 5 9 10 -3 6 -10 10 -16 10 -5
0 -9 -4 -9 -10z"/>
<path d="M3418 2333 c6 -2 18 -2 25 0 6 3 1 5 -13 5 -14 0 -19 -2 -12 -5z"/>
<path d="M3198 2323 c7 -3 16 -2 19 1 4 3 -2 6 -13 5 -11 0 -14 -3 -6 -6z"/>
<path d="M1140 2310 c-11 -7 -5 -8 20 -4 43 8 51 14 19 14 -13 0 -31 -5 -39
-10z"/>
<path d="M1059 2288 c-11 -22 -11 -22 7 -7 10 9 26 19 34 22 10 4 8 6 -7 6
-13 1 -27 -8 -34 -21z"/>
<path d="M3398 2293 c7 -3 16 -2 19 1 4 3 -2 6 -13 5 -11 0 -14 -3 -6 -6z"/>
<path d="M3466 2291 c-4 -7 -5 -15 -2 -18 9 -9 19 4 14 18 -4 11 -6 11 -12 0z"/>
<path d="M3131 2262 c-1 -30 1 -32 19 -22 23 12 27 30 6 30 -8 0 -17 6 -19 13
-3 6 -6 -3 -6 -21z"/>
<path d="M3273 2283 c9 -2 23 -2 30 0 6 3 -1 5 -18 5 -16 0 -22 -2 -12 -5z"/>
<path d="M4028 2283 c7 -3 16 -2 19 1 4 3 -2 6 -13 5 -11 0 -14 -3 -6 -6z"/>
<path d="M985 2270 c-3 -6 1 -7 9 -4 18 7 21 14 7 14 -6 0 -13 -4 -16 -10z"/>
<path d="M1092 2268 c-9 -12 -9 -19 3 -34 13 -18 15 -18 44 14 16 17 26 32 22
32 -4 0 -16 -9 -27 -21 l-19 -21 -5 22 c-5 19 -7 21 -18 8z"/>
<path d="M3953 2273 c9 -2 25 -2 35 0 9 3 1 5 -18 5 -19 0 -27 -2 -17 -5z"/>
<path d="M3878 2263 c7 -3 16 -2 19 1 4 3 -2 6 -13 5 -11 0 -14 -3 -6 -6z"/>
<path d="M993 2214 c-25 -22 -25 -24 -3 -10 28 18 60 21 60 6 0 -15 61 -50 86
-50 12 0 29 -11 39 -26 9 -14 19 -24 22 -21 10 11 -42 57 -64 57 -14 0 -39 15
-60 35 -20 19 -40 35 -44 35 -4 0 -21 -12 -36 -26z"/>
<path d="M1155 2210 c-21 -16 -33 -30 -26 -30 6 0 19 9 28 20 27 31 46 26 41
-10 -3 -16 -1 -30 4 -30 4 0 8 18 8 40 0 22 -4 40 -9 40 -4 0 -25 -13 -46 -30z"/>
<path d="M911 2144 c-1 -37 4 -58 18 -76 12 -14 21 -45 24 -74 l3 -49 2 49 c1
35 -3 55 -15 69 -10 11 -21 43 -24 76 l-6 56 -2 -51z"/>
<path d="M961 2164 c0 -11 3 -14 6 -6 3 7 2 16 -1 19 -3 4 -6 -2 -5 -13z"/>
<path d="M4253 2143 c-18 -45 -11 -122 14 -140 9 -7 17 -12 19 -10 1 1 -2 31
-7 67 -5 36 -7 77 -3 93 8 39 -4 33 -23 -10z"/>
<path d="M1074 2128 c-9 -17 -26 -40 -38 -50 l-21 -19 22 11 c20 9 72 90 58
90 -2 0 -12 -14 -21 -32z"/>
<path d="M1235 2140 c-3 -5 -1 -10 4 -10 6 0 11 5 11 10 0 6 -2 10 -4 10 -3 0
-8 -4 -11 -10z"/>
<path d="M956 2127 c3 -10 9 -15 12 -12 3 3 0 11 -7 18 -10 9 -11 8 -5 -6z"/>
<path d="M1115 2120 c-8 -13 13 -40 31 -40 17 0 18 22 2 38 -15 15 -25 15 -33
2z"/>
<path d="M623 2113 c-29 -6 -73 -65 -73 -98 0 -41 41 -75 92 -75 44 0 88 21
88 42 0 6 -9 3 -21 -8 -13 -11 -37 -19 -60 -20 -21 0 -37 1 -34 4 2 2 -2 17
-10 33 -16 29 -17 79 -2 79 4 0 6 4 3 9 -3 5 11 16 32 24 36 15 31 19 -15 10z"/>
<path d="M1241 2104 c0 -11 3 -14 6 -6 3 7 2 16 -1 19 -3 4 -6 -2 -5 -13z"/>
<path d="M4043 2113 c-8 -3 -13 -25 -13 -57 0 -54 12 -75 53 -89 23 -8 22 -2
-4 24 -18 18 -21 30 -17 75 3 30 2 54 -1 53 -3 0 -12 -3 -18 -6z"/>
<path d="M710 2106 c0 -2 8 -10 18 -17 15 -13 16 -12 3 4 -13 16 -21 21 -21
13z"/>
<path d="M4300 2103 c0 -6 7 -16 15 -23 13 -11 13 -15 3 -21 -7 -5 -8 -9 -2
-9 6 0 14 3 18 7 4 4 22 6 40 5 23 -2 35 2 39 12 5 12 0 16 -16 16 -18 0 -19
-2 -7 -11 11 -7 4 -8 -25 -3 -22 3 -46 13 -52 22 -7 9 -13 11 -13 5z"/>
<path d="M970 2090 c0 -5 9 -14 20 -20 11 -6 20 -7 20 -3 0 5 -9 14 -20 21
-11 7 -20 8 -20 2z"/>
<path d="M648 2069 c-22 -12 -24 -62 -4 -78 31 -26 75 24 61 69 -7 22 -30 25
-57 9z m41 -46 c-18 -21 -39 -15 -39 11 0 30 20 39 37 18 9 -11 10 -19 2 -29z"/>
<path d="M4091 2045 c0 -31 2 -36 9 -23 6 10 7 25 1 40 -9 20 -10 18 -10 -17z"/>
<path d="M742 2045 c0 -16 2 -22 5 -12 2 9 2 23 0 30 -3 6 -5 -1 -5 -18z"/>
<path d="M1084 2056 c-8 -22 1 -30 21 -19 15 9 15 11 1 22 -13 11 -17 10 -22
-3z"/>
<path d="M3830 2026 c0 -47 19 -76 48 -76 13 0 14 2 4 9 -9 5 -13 23 -12 47 4
58 2 64 -20 64 -17 0 -20 -7 -20 -44z"/>
<path d="M1168 2052 c-15 -6 -15 -9 -2 -26 12 -17 14 -18 14 -3 0 10 8 17 19
17 11 0 23 5 26 10 7 11 -31 12 -57 2z"/>
<path d="M3638 2053 c12 -2 30 -2 40 0 9 3 -1 5 -23 4 -22 0 -30 -2 -17 -4z"/>
<path d="M3633 2033 c-7 -2 -13 -12 -13 -20 0 -13 3 -13 15 -3 8 7 30 16 48
20 l32 8 -35 0 c-19 0 -41 -2 -47 -5z"/>
<path d="M1028 2023 c6 -2 12 -11 12 -18 0 -30 59 -33 85 -5 22 25 9 27 -18 3
-18 -17 -20 -17 -37 5 -10 12 -26 22 -37 21 -10 0 -13 -3 -5 -6z"/>
<path d="M4381 2026 c11 -9 69 -15 64 -6 -3 6 -20 10 -37 10 -17 0 -29 -2 -27
-4z"/>
<path d="M1000 2006 c0 -9 5 -16 10 -16 6 0 10 4 10 9 0 6 -4 13 -10 16 -5 3
-10 -1 -10 -9z"/>
<path d="M4315 2010 c3 -5 23 -10 43 -9 30 0 33 2 17 9 -28 12 -67 12 -60 0z"/>
<path d="M3281 1939 c-23 -33 -41 -63 -38 -65 6 -6 87 105 87 118 0 15 -6 9
-49 -53z"/>
<path d="M3910 1986 c0 -9 5 -16 10 -16 6 0 10 4 10 9 0 6 -4 13 -10 16 -5 3
-10 -1 -10 -9z"/>
<path d="M3950 1985 c0 -8 2 -15 4 -15 2 0 6 7 10 15 3 8 1 15 -4 15 -6 0 -10
-7 -10 -15z"/>
<path d="M1140 1965 c-30 -8 -73 -15 -95 -15 -22 -1 -49 -5 -60 -10 -13 -6 -2
-7 35 -4 64 6 201 32 208 39 9 9 -31 4 -88 -10z"/>
<path d="M3124 1895 c-38 -50 -23 -55 16 -5 17 22 27 40 21 40 -5 0 -22 -16
-37 -35z"/>
<path d="M3573 1923 c-7 -3 -21 -23 -31 -47 -11 -23 -26 -49 -35 -58 -15 -15
-27 -52 -32 -103 -1 -11 -8 -32 -14 -46 -26 -55 19 -139 75 -139 17 0 24 8 31
38 8 31 13 37 34 34 68 -8 85 18 95 140 3 46 12 93 20 104 13 21 12 22 -15 11
-42 -15 -104 10 -111 44 -3 15 -10 24 -17 22z m94 -98 c27 -18 30 -56 6 -80
-12 -13 -26 -15 -57 -11 -65 11 -99 54 -76 97 11 19 18 21 58 15 25 -3 56 -13
69 -21z m-4 -124 c25 -25 -30 -92 -65 -79 -7 3 -17 6 -21 6 -4 1 -21 15 -37
31 -20 20 -28 35 -23 47 5 14 16 16 71 11 36 -4 70 -11 75 -16z"/>
<path d="M3368 1863 c-24 -32 -54 -76 -66 -98 -26 -46 -13 -31 63 78 64 90 65
102 3 20z"/>
<path d="M1183 1893 c9 -2 25 -2 35 0 9 3 1 5 -18 5 -19 0 -27 -2 -17 -5z"/>
<path d="M1123 1883 c9 -2 23 -2 30 0 6 3 -1 5 -18 5 -16 0 -22 -2 -12 -5z"/>
<path d="M1028 1873 c12 -2 30 -2 40 0 9 3 -1 5 -23 4 -22 0 -30 -2 -17 -4z"/>
<path d="M3922 1820 c-20 -26 -22 -42 -22 -140 0 -129 7 -150 53 -149 29 0 30
1 10 9 -19 8 -23 17 -23 52 -1 24 -3 78 -6 121 -3 43 -1 91 5 107 13 37 10 37
-17 0z"/>
<path d="M3172 1781 c34 -33 65 -57 67 -55 5 5 -111 113 -122 114 -5 0 20 -27
55 -59z"/>
<path d="M1455 1820 c-3 -6 1 -7 9 -4 18 7 21 14 7 14 -6 0 -13 -4 -16 -10z"/>
<path d="M493 1764 l-25 -25 4 -156 c4 -155 4 -156 32 -179 19 -17 39 -24 71
-24 56 0 71 20 16 21 -72 2 -68 -1 -74 64 -3 28 -6 52 -8 55 -1 3 -3 59 -4
125 -1 98 2 122 14 132 9 7 12 13 8 13 -4 0 -19 -12 -34 -26z"/>
<path d="M1446 1754 c-14 -15 -26 -37 -26 -50 0 -13 1 -24 3 -24 1 0 26 9 55
20 66 25 137 26 185 1 36 -18 37 -18 37 0 0 10 -3 18 -7 17 -10 -2 -82 18
-151 43 -67 24 -64 24 -96 -7z"/>
<path d="M3962 1700 c0 -14 2 -19 5 -12 2 6 2 18 0 25 -3 6 -5 1 -5 -13z"/>
<path d="M625 1690 c3 -5 11 -10 16 -10 6 0 7 5 4 10 -3 6 -11 10 -16 10 -6 0
-7 -4 -4 -10z"/>
<path d="M4306 1681 c-34 -37 0 -111 50 -111 27 0 74 27 74 42 0 5 -7 3 -15
-6 -47 -46 -91 -22 -89 49 0 25 0 45 -1 45 -1 0 -10 -9 -19 -19z"/>
<path d="M4357 1672 c-3 -4 -3 -19 0 -34 4 -23 8 -26 24 -17 26 13 26 59 0 59
-11 0 -22 -3 -24 -8z m33 -22 c0 -5 -4 -10 -10 -10 -5 0 -10 5 -10 10 0 6 5
10 10 10 6 0 10 -4 10 -10z"/>
<path d="M610 1660 c-9 -6 -10 -10 -3 -10 6 0 15 5 18 10 8 12 4 12 -15 0z"/>
<path d="M686 1661 c-3 -5 1 -11 8 -14 8 -3 17 -1 19 6 3 8 14 3 31 -12 14
-14 26 -19 26 -13 0 26 -71 55 -84 33z"/>
<path d="M3703 1630 c-13 -5 -23 -12 -23 -15 0 -10 27 -5 46 10 21 16 11 18
-23 5z"/>
<path d="M4060 1610 c0 -5 5 -10 10 -10 6 0 10 5 10 10 0 6 -4 10 -10 10 -5 0
-10 -4 -10 -10z"/>
<path d="M640 1572 c0 -33 22 -53 57 -51 10 0 3 5 -14 10 -32 9 -45 33 -22 41
7 2 5 9 -5 17 -14 12 -16 10 -16 -17z"/>
<path d="M761 1589 c-1 -8 -10 -25 -21 -37 -12 -12 -16 -22 -11 -22 15 0 44
47 38 62 -4 9 -6 8 -6 -3z"/>
<path d="M570 1570 c0 -11 5 -20 10 -20 6 0 10 9 10 20 0 11 -4 20 -10 20 -5
0 -10 -9 -10 -20z"/>
<path d="M4068 1543 c7 -3 16 -2 19 1 4 3 -2 6 -13 5 -11 0 -14 -3 -6 -6z"/>
<path d="M765 1499 c-11 -16 -1 -19 13 -3 7 8 8 14 3 14 -5 0 -13 -5 -16 -11z"/>
<path d="M1611 1485 c-40 -14 -87 -33 -105 -42 l-31 -16 25 27 25 27 -28 -10
c-24 -9 -27 -8 -27 11 0 14 -4 18 -9 13 -15 -17 2 -90 21 -89 14 1 15 -2 5
-17 -17 -28 -2 -33 30 -10 15 11 70 39 121 62 88 40 109 61 66 66 -10 2 -52
-9 -93 -22z m-6 -40 c-92 -35 -122 -39 -64 -10 49 26 101 44 129 44 14 0 -15
-15 -65 -34z"/>
<path d="M610 1489 c-12 -7 -13 -9 -1 -9 8 0 20 -8 27 -17 12 -16 12 -16 7 5
-7 28 -15 33 -33 21z"/>
<path d="M696 1471 c-4 -7 -5 -15 -2 -18 9 -9 19 4 14 18 -4 11 -6 11 -12 0z"/>
<path d="M730 1460 c-8 -5 -10 -10 -5 -10 6 0 17 5 25 10 8 5 11 10 5 10 -5 0
-17 -5 -25 -10z"/>
<path d="M4160 1391 c0 -23 7 -46 16 -56 9 -9 18 -15 19 -13 7 7 -18 108 -26
108 -5 0 -9 -18 -9 -39z"/>
<path d="M653 1393 c9 -2 25 -2 35 0 9 3 1 5 -18 5 -19 0 -27 -2 -17 -5z"/>
<path d="M958 1375 c-16 -21 -18 -50 -18 -239 0 -235 4 -259 53 -276 49 -16
79 -12 36 6 -33 14 -37 20 -43 62 -3 26 -5 141 -5 256 0 114 -1 210 -3 211 -2
2 -11 -7 -20 -20z"/>
<path d="M1201 1353 c-1 -16 5 -23 17 -23 10 0 13 3 6 8 -6 4 -14 14 -17 22
-4 10 -6 8 -6 -7z"/>
<path d="M3605 1345 c-25 -24 -25 -24 -25 -239 l0 -215 28 -21 c23 -19 34 -21
82 -15 30 4 82 11 115 15 52 6 54 7 19 9 -23 0 -66 -4 -95 -9 -53 -11 -54 -10
-81 20 -27 30 -28 34 -29 158 -1 70 -3 159 -5 199 -2 60 1 76 17 97 26 33 6
34 -26 1z"/>
<path d="M1132 1331 c-11 -7 -11 -9 2 -14 10 -4 16 -1 16 8 0 17 -1 17 -18 6z"/>
<path d="M1078 1313 c6 -2 18 -2 25 0 6 3 1 5 -13 5 -14 0 -19 -2 -12 -5z"/>
<path d="M1498 1313 c7 -3 16 -2 19 1 4 3 -2 6 -13 5 -11 0 -14 -3 -6 -6z"/>
<path d="M1818 1266 c-25 -39 -34 -86 -16 -86 4 0 8 5 8 10 0 6 8 5 20 -2 15
-10 22 -10 32 0 9 9 9 12 -4 12 -31 0 -39 24 -22 65 21 51 14 51 -18 1z"/>
<path d="M1213 1293 c-19 -4 -23 -10 -21 -41 1 -36 1 -36 5 -5 4 32 34 50 66
37 8 -3 18 -1 22 5 6 11 -27 13 -72 4z"/>
<path d="M1507 1258 c3 -24 14 -62 25 -86 21 -44 100 -122 125 -122 8 0 33
-10 55 -21 l42 -21 21 26 c11 14 28 26 38 26 27 0 20 23 -13 42 -30 17 -30 18
-14 43 19 30 6 34 -19 5 -24 -29 -58 -25 -115 14 -46 31 -155 129 -123 111 9
-5 12 -3 9 6 -3 8 -12 15 -20 17 -13 2 -15 -5 -11 -40z m253 -179 c24 -20 24
-21 6 -35 -17 -12 -21 -10 -38 11 -11 14 -25 23 -31 19 -7 -3 -3 2 7 10 25 20
26 20 56 -5z"/>
<path d="M3855 1280 c3 -5 21 -10 40 -10 19 0 37 5 40 10 4 6 -12 10 -40 10
-28 0 -44 -4 -40 -10z"/>
<path d="M1080 1269 c-18 -6 -14 -7 18 -3 l42 6 0 -50 c0 -45 -3 -51 -22 -55
-20 -4 -19 -4 5 -6 27 -1 27 0 27 59 0 56 -2 60 -22 59 -13 -1 -34 -5 -48 -10z"/>
<path d="M3745 1273 c-42 -6 -53 -21 -13 -18 18 2 52 3 76 4 26 1 41 5 37 11
-6 10 -42 11 -100 3z"/>
<path d="M1271 1234 c0 -11 3 -14 6 -6 3 7 2 16 -1 19 -3 4 -6 -2 -5 -13z"/>
<path d="M1213 1220 c-13 -10 -23 -23 -23 -29 0 -5 12 1 26 16 30 30 28 39 -3
13z"/>
<path d="M3807 1215 c-90 -11 -117 -19 -106 -29 2 -2 54 2 114 10 61 7 116 13
123 14 7 0 10 5 7 10 -7 12 -9 12 -138 -5z"/>
<path d="M1260 1180 l-45 -7 42 -1 c23 -1 45 3 48 8 3 6 5 9 3 8 -2 0 -23 -4
-48 -8z"/>
<path d="M1190 1155 c0 -8 2 -15 4 -15 2 0 6 7 10 15 3 8 1 15 -4 15 -6 0 -10
-7 -10 -15z"/>
<path d="M732 1148 c-19 -19 -14 -46 10 -59 18 -10 20 -9 15 5 -4 9 -2 27 3
41 10 28 -6 35 -28 13z"/>
<path d="M1068 1153 c7 -3 16 -2 19 1 4 3 -2 6 -13 5 -11 0 -14 -3 -6 -6z"/>
<path d="M3780 1148 c-36 -5 -71 -10 -77 -10 -7 -1 -13 -6 -13 -11 0 -6 26 -7
68 -3 37 4 79 7 95 7 15 0 27 3 27 8 0 5 11 6 24 4 13 -3 27 0 30 6 9 13 -59
13 -154 -1z"/>
<path d="M1275 1140 c-3 -6 1 -7 9 -4 18 7 21 14 7 14 -6 0 -13 -4 -16 -10z"/>
<path d="M1113 1113 c-4 -9 -21 -30 -39 -45 -37 -33 -53 -93 -34 -128 11 -21
17 -22 73 -16 114 13 188 28 202 43 16 16 20 70 6 92 -5 8 -7 -4 -4 -32 5 -38
2 -47 -15 -56 -16 -9 -209 -41 -244 -41 -13 0 -9 82 5 110 7 14 21 29 33 34
21 10 49 56 33 56 -5 0 -13 -8 -16 -17z"/>
<path d="M1230 1120 c0 -5 5 -10 10 -10 6 0 10 5 10 10 0 6 -4 10 -10 10 -5 0
-10 -4 -10 -10z"/>
<path d="M1078 1113 c7 -3 16 -2 19 1 4 3 -2 6 -13 5 -11 0 -14 -3 -6 -6z"/>
<path d="M1261 1106 c2 -2 15 -9 29 -16 23 -12 24 -12 11 3 -7 10 -20 17 -29
17 -8 0 -13 -2 -11 -4z"/>
<path d="M3830 1094 c-52 -8 -105 -15 -117 -16 -38 -4 -13 -19 27 -16 21 1 37
5 35 9 -3 3 21 7 53 8 88 4 106 7 110 19 2 7 0 11 -5 11 -4 -1 -51 -8 -103
-15z"/>
<path d="M1945 1030 c-3 -11 -11 -20 -16 -20 -5 0 -9 -4 -9 -10 0 -5 9 -10 20
-10 16 0 20 7 20 30 0 35 -6 39 -15 10z"/>
<path d="M1173 1029 c-61 -14 -65 -38 -5 -31 58 6 67 12 21 13 l-34 1 35 8
c23 6 37 5 42 -3 4 -6 10 -8 13 -5 10 9 -4 28 -18 27 -7 -1 -31 -5 -54 -10z"/>
<path d="M3806 1024 c-54 -7 -101 -16 -104 -19 -13 -13 11 -14 89 -5 130 16
149 20 149 30 0 12 -7 12 -134 -6z"/>
<path d="M605 981 c-4 -15 -12 -20 -22 -17 -13 5 -15 0 -9 -36 10 -61 34 -83
83 -73 21 5 41 8 46 7 4 -1 7 3 7 9 0 7 -14 8 -40 4 l-40 -7 0 54 c0 62 -14
94 -25 59z"/>
<path d="M1900 975 c0 -9 -4 -13 -10 -10 -18 11 -10 -12 11 -31 17 -16 35 -19
103 -18 44 1 145 2 224 3 78 1 142 5 142 10 0 4 -6 15 -12 24 -11 14 -18 15
-48 6 -81 -25 -298 -11 -392 26 -13 5 -18 2 -18 -10z"/>
<path d="M660 934 c0 -19 4 -33 8 -30 8 5 4 66 -4 66 -2 0 -4 -16 -4 -36z"/>
<path d="M3801 959 c-41 -5 -79 -13 -83 -17 -9 -9 101 2 182 17 41 8 42 9 10
9 -19 -1 -68 -4 -109 -9z"/>
<path d="M2510 919 c0 -18 5 -59 12 -91 8 -40 9 -61 2 -66 -5 -4 -16 -27 -23
-52 -7 -25 -22 -64 -34 -88 -25 -52 -20 -64 47 -109 123 -81 365 -125 489 -89
56 16 68 28 45 42 -6 4 -8 3 -5 -3 9 -15 -70 -33 -143 -33 -107 0 -152 38
-165 139 -5 40 -4 42 18 36 19 -6 -65 58 -118 90 -12 7 17 9 97 7 87 -3 123 0
151 11 41 18 55 53 15 38 -50 -19 -129 -23 -200 -10 -40 7 -63 15 -51 17 14 2
21 10 20 23 -1 10 -4 19 -8 19 -10 0 -50 101 -43 111 6 10 -22 22 -73 34 -32
6 -33 6 -33 -26z"/>
<path d="M1896 895 c4 -8 10 -15 15 -15 4 0 3 -14 -3 -31 -6 -17 -7 -49 -4
-72 9 -55 9 -77 -2 -102 -5 -11 -22 -51 -37 -90 -16 -38 -31 -74 -35 -78 -27
-31 69 -103 194 -144 70 -23 99 -27 206 -27 126 -1 177 10 187 41 3 9 -4 8
-25 -2 -43 -22 -169 -30 -216 -13 -49 17 -72 49 -84 116 l-10 54 27 -7 c16 -4
-8 19 -64 59 -128 92 -137 100 -86 75 64 -31 232 -39 296 -15 61 24 63 51 3
39 -57 -11 -207 -8 -238 5 l-25 11 25 1 c22 0 23 2 7 11 -9 6 -15 15 -11 20 3
5 -6 23 -21 40 -14 17 -31 51 -37 74 -8 29 -20 47 -35 54 -31 14 -33 14 -27
-4z m85 -193 c-7 -2 -18 1 -23 6 -8 8 -4 9 13 5 13 -4 18 -8 10 -11z"/>
<path d="M3905 890 l-30 -8 27 -1 c15 0 30 4 33 9 3 6 5 9 3 9 -2 -1 -16 -5
-33 -9z"/>
<path d="M1278 883 c7 -3 16 -2 19 1 4 3 -2 6 -13 5 -11 0 -14 -3 -6 -6z"/>
<path d="M1188 873 c12 -2 32 -2 45 0 12 2 2 4 -23 4 -25 0 -35 -2 -22 -4z"/>
<path d="M1103 863 c9 -2 25 -2 35 0 9 3 1 5 -18 5 -19 0 -27 -2 -17 -5z"/>
<path d="M844 725 c-4 -8 -15 -15 -25 -15 -23 0 -25 -27 -3 -58 11 -15 25 -22
47 -21 22 1 25 3 12 6 -11 3 -23 10 -27 17 -8 13 0 55 15 74 6 8 6 12 -2 12
-6 0 -14 -7 -17 -15z"/>
<path d="M921 717 c17 -32 19 -33 19 -10 0 12 -7 23 -15 27 -13 5 -14 2 -4
-17z"/>
<path d="M2970 702 c0 -5 3 -12 8 -16 4 -4 12 -22 19 -39 7 -19 12 -25 12 -14
1 10 -6 31 -14 47 -15 30 -25 38 -25 22z"/>
<path d="M850 671 c0 -6 3 -12 8 -12 34 -6 52 -5 52 3 0 6 -7 7 -16 4 -9 -4
-23 -1 -30 5 -10 8 -14 8 -14 0z"/>
<path d="M2346 615 c4 -11 10 -38 14 -60 4 -22 8 -32 9 -22 0 10 6 15 11 12
17 -10 11 8 -16 50 -14 22 -22 31 -18 20z"/>
</g>
</svg>
