<?xml version="1.0" standalone="no"?>
<!DOCTYPE svg PUBLIC "-//W3C//DTD SVG 20010904//EN"
 "http://www.w3.org/TR/2001/REC-SVG-20010904/DTD/svg10.dtd">
<svg version="1.0" xmlns="http://www.w3.org/2000/svg"
 width="466.000000pt" height="71.000000pt" viewBox="0 0 466.000000 71.000000"
 preserveAspectRatio="xMidYMid meet">

<g transform="translate(0.000000,71.000000) scale(0.100000,-0.100000)"
fill="#000000" stroke="none">
<path d="M1641 531 c-13 -23 10 -47 34 -37 20 7 19 42 -1 50 -22 8 -22 8 -33
-13z"/>
<path d="M2850 538 c-29 -11 -40 -25 -40 -55 0 -14 -6 -23 -15 -23 -9 0 -15
-9 -15 -25 0 -16 6 -25 15 -25 12 0 15 -15 15 -75 0 -73 1 -75 25 -75 24 0 25
2 25 74 0 70 1 75 23 78 14 2 23 11 25 26 3 18 -1 22 -23 22 -20 0 -26 4 -23
18 2 9 13 18 26 20 13 2 22 10 22 22 0 22 -27 30 -60 18z"/>
<path d="M2294 526 c-34 -15 -44 -33 -44 -75 0 -35 26 -59 81 -75 54 -16 72
-41 44 -62 -24 -18 -61 -11 -91 17 -18 16 -23 17 -39 5 -18 -13 -18 -15 12
-45 27 -26 39 -31 81 -31 64 0 102 27 102 74 0 41 -26 66 -88 86 -35 11 -48
21 -50 37 -5 33 41 42 78 15 24 -18 30 -19 46 -8 16 12 17 16 4 31 -16 19 -70
45 -92 45 -7 -1 -27 -7 -44 -14z"/>
<path d="M3083 525 c-45 -19 -66 -56 -67 -118 -1 -100 39 -147 124 -147 33 0
48 6 71 29 34 34 37 57 9 64 -13 3 -24 -3 -35 -19 -11 -18 -25 -24 -50 -24
-49 0 -65 21 -65 86 0 89 55 123 108 66 29 -30 62 -32 62 -3 0 22 -36 56 -73
70 -36 14 -45 13 -84 -4z"/>
<path d="M665 518 c-21 -58 -85 -249 -85 -253 0 -3 11 -5 24 -5 19 0 27 8 36
35 12 36 12 36 63 33 48 -3 52 -5 61 -35 7 -27 14 -33 37 -33 l28 0 -46 135
-47 135 -33 0 c-19 0 -36 -6 -38 -12z m64 -125 c1 -8 -11 -13 -28 -13 l-30 0
16 47 16 47 13 -34 c7 -19 13 -41 13 -47z"/>
<path d="M850 395 l0 -135 30 0 30 0 0 135 0 135 -30 0 -30 0 0 -135z"/>
<path d="M1040 395 l0 -135 96 0 c93 0 95 1 92 23 -3 20 -9 22 -65 25 l-63 3
0 34 0 35 60 0 c53 0 60 2 60 20 0 18 -7 20 -60 20 l-60 0 0 35 0 35 60 0 c53
0 60 2 60 20 0 19 -7 20 -90 20 l-90 0 0 -135z"/>
<path d="M1410 395 l0 -135 30 0 30 0 0 74 c0 78 10 94 51 81 16 -6 19 -17 19
-81 l0 -74 30 0 c30 0 30 0 29 58 -1 109 -37 160 -100 142 -28 -8 -29 -8 -29
31 0 37 -2 39 -30 39 l-30 0 0 -135z"/>
<path d="M2690 395 l0 -135 30 0 30 0 0 135 0 135 -30 0 -30 0 0 -135z"/>
<path d="M3280 395 l0 -135 30 0 30 0 0 74 c0 78 10 94 51 81 16 -6 19 -17 19
-81 l0 -74 30 0 c30 0 30 0 29 58 -1 109 -37 160 -100 142 -28 -8 -29 -8 -29
31 0 37 -2 39 -30 39 l-30 0 0 -135z"/>
<path d="M3930 395 l0 -135 30 0 c28 0 30 3 30 35 0 44 14 44 42 0 19 -28 29
-35 56 -35 l33 0 -41 53 c-22 30 -40 58 -40 62 0 5 17 26 37 47 l37 38 -34 0
c-26 0 -40 -8 -61 -32 l-28 -33 -1 68 0 67 -30 0 -30 0 0 -135z"/>
<path d="M1280 485 c0 -16 -6 -25 -15 -25 -9 0 -15 -9 -15 -25 0 -16 6 -25 15
-25 12 0 15 -14 15 -63 0 -74 10 -87 63 -87 34 0 38 2 35 23 -2 14 -10 22 -23
22 -17 0 -20 8 -23 52 -3 47 -1 52 20 55 15 2 24 11 26 26 3 18 -1 22 -22 22
-21 0 -26 5 -26 25 0 20 -5 25 -25 25 -20 0 -25 -5 -25 -25z"/>
<path d="M1795 463 c-72 -18 -94 -144 -32 -188 35 -25 94 -19 124 12 l27 26
-23 8 c-15 6 -30 4 -46 -7 -37 -24 -65 -4 -65 46 0 50 28 70 64 46 13 -8 33
-12 44 -9 18 4 20 9 11 25 -9 16 -70 51 -81 47 -2 -1 -12 -4 -23 -6z"/>
<path d="M1987 458 c-51 -19 -48 -88 6 -108 48 -18 59 -24 58 -35 0 -16 -31
-18 -57 -5 -24 13 -54 8 -54 -9 0 -18 49 -43 84 -43 101 0 114 96 16 122 -24
6 -40 17 -40 25 0 18 41 20 58 3 8 -8 15 -8 27 2 23 19 18 30 -20 46 -39 16
-40 16 -78 2z"/>
<path d="M2531 461 c-37 -10 -63 -53 -63 -102 1 -61 28 -93 81 -97 45 -3 91
18 91 42 0 19 -37 27 -51 10 -14 -17 -41 -18 -57 -2 -22 22 -12 28 53 28 l65
0 0 31 c0 43 -16 69 -55 85 -19 8 -36 14 -37 13 -2 -1 -14 -4 -27 -8z m59 -56
c11 -13 7 -15 -30 -15 -37 0 -41 2 -30 15 7 8 20 15 30 15 10 0 23 -7 30 -15z"/>
<path d="M3561 461 c-37 -10 -63 -53 -63 -102 1 -61 28 -93 81 -97 45 -3 91
18 91 42 0 19 -37 27 -51 10 -14 -17 -41 -18 -57 -2 -22 22 -12 28 53 28 l65
0 0 31 c0 43 -16 69 -55 85 -19 8 -36 14 -37 13 -2 -1 -14 -4 -27 -8z m59 -56
c11 -13 7 -15 -30 -15 -37 0 -41 2 -30 15 7 8 20 15 30 15 10 0 23 -7 30 -15z"/>
<path d="M3785 463 c-72 -18 -94 -144 -32 -188 35 -25 94 -19 124 12 l27 26
-23 8 c-15 6 -30 4 -46 -7 -37 -24 -65 -4 -65 46 0 50 28 70 64 46 13 -8 33
-12 44 -9 18 4 20 9 11 25 -9 16 -70 51 -81 47 -2 -1 -12 -4 -23 -6z"/>
<path d="M1640 360 l0 -100 25 0 25 0 0 100 0 100 -25 0 -25 0 0 -100z"/>
</g>
</svg>
